<?xml version="1.0" encoding="UTF-8" standalone="no"?>
<!-- Generator: Adobe Illustrator 16.0.4, SVG Export Plug-In . SVG Version: 6.00 Build 0)  -->

<svg
   xmlns:dc="http://purl.org/dc/elements/1.1/"
   xmlns:cc="http://creativecommons.org/ns#"
   xmlns:rdf="http://www.w3.org/1999/02/22-rdf-syntax-ns#"
   xmlns:svg="http://www.w3.org/2000/svg"
   xmlns="http://www.w3.org/2000/svg"
   xmlns:sodipodi="http://sodipodi.sourceforge.net/DTD/sodipodi-0.dtd"
   xmlns:inkscape="http://www.inkscape.org/namespaces/inkscape"
   version="1.1"
   id="Layer_1"
   x="0px"
   y="0px"
   width="50px"
   height="50px"
   viewBox="0 0 50 50"
   enable-background="new 0 0 50 50"
   xml:space="preserve"
   inkscape:version="0.48.5 r10040"
   sodipodi:docname="batman.svg"><metadata
     id="metadata3866"><rdf:RDF><cc:Work
         rdf:about=""><dc:format>image/svg+xml</dc:format><dc:type
           rdf:resource="http://purl.org/dc/dcmitype/StillImage" /></cc:Work></rdf:RDF></metadata><defs
     id="defs3864" /><sodipodi:namedview
     pagecolor="#ffffff"
     bordercolor="#666666"
     borderopacity="1"
     objecttolerance="10"
     gridtolerance="10"
     guidetolerance="10"
     inkscape:pageopacity="0"
     inkscape:pageshadow="2"
     inkscape:window-width="1680"
     inkscape:window-height="987"
     id="namedview3862"
     showgrid="false"
     inkscape:zoom="16"
     inkscape:cx="21.60125"
     inkscape:cy="28.253731"
     inkscape:window-x="0"
     inkscape:window-y="27"
     inkscape:window-maximized="1"
     inkscape:current-layer="Layer_1" /><path
     d="m 24.988274,45.924 c 0,0 2.492846,-33.092306 13.865732,-16.302443 C 40.00069,28.810641 45.182,25.519109 45.182,18.070003 c 0,-7.450556 -5.334459,-13.118259 -13.170773,-13.118259 2.008949,1.1866345 4.208367,3.4206408 2.24575,5.506681 -2.092601,2.223851 -7.454086,3.06378 -7.454086,-6.381425 -1.176284,3.4960748 -2.037262,3.3713186 -3.298485,0.06673 0.04762,3.8369784 -1.440111,10.853789 -7.694748,6.26102 C 14.278173,9.4313619 14.333513,5.759758 17.884242,4.9415894 15.827676,4.8879153 4.819,6.4096507 4.819,18.070003 c 0.047618,8.689414 6.450255,12.199996 6.450255,12.199996 0,0 9.353643,-19.678114 13.719019,15.654001 z"
     id="path3860"
     inkscape:connector-curvature="0"
     style="fill:#cccccc;fill-opacity:1;stroke:#666666;stroke-opacity:1" /></svg>